<?xml version="1.0" encoding="utf-8"?>
<!-- Generator: Adobe Illustrator 21.1.0, SVG Export Plug-In . SVG Version: 6.00 Build 0)  -->
<svg version="1.1" id="Layer_1" xmlns="http://www.w3.org/2000/svg" xmlns:xlink="http://www.w3.org/1999/xlink" x="0px" y="0px"
	 viewBox="0 0 209 104.5" style="enable-background:new 0 0 209 104.5;" xml:space="preserve">
<style type="text/css">
	.st0{fill:#B7950B;}
	.st1{font-family:'ArialMT';}
	.st2{font-size:66.48px;}
	.st3{letter-spacing:-5;}
	.st4{fill:#AAAAAA;}
</style>
<g>
	<title>linkup</title>
	<text transform="matrix(1 0 0 1 130.53 74.06)" class="st0 st1 st2 st3">up</text>
	<polygon class="st4" points="18.2,12.4 18.2,74.2 41.3,74.2 41.3,66.5 25.9,66.5 25.9,12.4 	"/>
	<rect x="45.2" y="43.3" class="st4" width="7.7" height="30.9"/>
	<rect x="45.2" y="24" class="st4" width="7.7" height="7.7"/>
	<rect x="87.6" y="12.4" class="st4" width="7.7" height="61.8"/>
	<polygon class="st4" points="118.5,74.2 106.9,74.2 91.5,58.8 106.9,43.3 118.5,43.3 103.1,58.8 	"/>
	<path class="st4" d="M56.8,74.2V43.3h19.3c0,0,7.7,0,7.7,7.7v23.2h-7.7V54.9c0,0,0-3.9-3.9-3.9h-7.7v23.2H56.8z"/>
	<polygon class="st0" points="118.5,43.3 122.4,43.3 137.8,58.8 122.4,74.2 118.5,74.2 134,58.8 	"/>
</g>
</svg>
